<svg width="16" height="15" viewBox="0 0 16 15" fill="none" xmlns="http://www.w3.org/2000/svg">
<path d="M7.5 15C5.75 15 4.20139 14.4688 2.85417 13.4062C1.50694 12.3438 0.631945 10.9861 0.229167 9.33333C0.173611 9.125 0.215278 8.93403 0.354167 8.76042C0.493056 8.58681 0.680556 8.48611 0.916667 8.45833C1.13889 8.43056 1.34028 8.47222 1.52083 8.58333C1.70139 8.69444 1.82639 8.86111 1.89583 9.08333C2.22917 10.3333 2.91667 11.3542 3.95833 12.1458C5 12.9375 6.18056 13.3333 7.5 13.3333C7.65278 13.3333 7.79514 13.3299 7.92708 13.3229C8.05903 13.316 8.19445 13.2986 8.33333 13.2708V14.9583C8.19445 14.9722 8.05903 14.9826 7.92708 14.9896C7.79514 14.9965 7.65278 15 7.5 15ZM12.9167 12.8542L11.75 14C11.5972 14.1528 11.4063 14.2326 11.1771 14.2396C10.9479 14.2465 10.75 14.1667 10.5833 14C10.4306 13.8472 10.3542 13.6528 10.3542 13.4167C10.3542 13.1806 10.4306 12.9861 10.5833 12.8333L11.75 11.6667L10.5833 10.5C10.4306 10.3472 10.3542 10.1528 10.3542 9.91667C10.3542 9.68056 10.4306 9.48611 10.5833 9.33333C10.7361 9.18056 10.9306 9.10417 11.1667 9.10417C11.4028 9.10417 11.5972 9.18056 11.75 9.33333L12.9167 10.5L14.0833 9.33333C14.2361 9.18056 14.4271 9.10069 14.6563 9.09375C14.8854 9.08681 15.0833 9.16667 15.25 9.33333C15.4028 9.48611 15.4792 9.68056 15.4792 9.91667C15.4792 10.1528 15.4028 10.3472 15.25 10.5L14.1042 11.6667L15.25 12.8333C15.4028 12.9861 15.4826 13.1771 15.4896 13.4062C15.4965 13.6354 15.4167 13.8333 15.25 14C15.0972 14.1528 14.9028 14.2292 14.6667 14.2292C14.4306 14.2292 14.2361 14.1528 14.0833 14L12.9167 12.8542ZM7.5 1.66667C6.54167 1.66667 5.64583 1.88889 4.8125 2.33333C3.97917 2.77778 3.27778 3.38889 2.70833 4.16667H4.16667C4.40278 4.16667 4.6007 4.24653 4.76042 4.40625C4.92014 4.56597 5 4.76389 5 5C5 5.23611 4.92014 5.43403 4.76042 5.59375C4.6007 5.75347 4.40278 5.83333 4.16667 5.83333H0.833333C0.597222 5.83333 0.399306 5.75347 0.239583 5.59375C0.0798611 5.43403 0 5.23611 0 5V1.66667C0 1.43056 0.0798611 1.23264 0.239583 1.07292C0.399306 0.913194 0.597222 0.833333 0.833333 0.833333C1.06944 0.833333 1.26736 0.913194 1.42708 1.07292C1.58681 1.23264 1.66667 1.43056 1.66667 1.66667V2.79167C2.375 1.90278 3.23958 1.21528 4.26042 0.729167C5.28125 0.243056 6.36111 0 7.5 0C9.58333 0 11.3542 0.729167 12.8125 2.1875C14.2708 3.64583 15 5.41667 15 7.5H13.3333C13.3333 5.875 12.7674 4.49653 11.6354 3.36458C10.5035 2.23264 9.125 1.66667 7.5 1.66667ZM8.625 9.79167L6.91667 8.08333C6.83333 8 6.77083 7.90625 6.72917 7.80208C6.6875 7.69792 6.66667 7.59028 6.66667 7.47917V4.16667C6.66667 3.93056 6.74653 3.73264 6.90625 3.57292C7.06597 3.41319 7.26389 3.33333 7.5 3.33333C7.73611 3.33333 7.93403 3.41319 8.09375 3.57292C8.25347 3.73264 8.33333 3.93056 8.33333 4.16667V7.16667L9.5 8.33333L8.625 9.79167Z" fill="#FF493E"/>
</svg>
