<svg width="18" height="19" viewBox="0 0 18 19" fill="none" xmlns="http://www.w3.org/2000/svg">
<path d="M13.01 11.7559H12.22L11.94 11.4859C12.92 10.3459 13.51 8.86586 13.51 7.25586C13.51 3.66586 10.6 0.755859 7.01001 0.755859C3.42001 0.755859 0.51001 3.66586 0.51001 7.25586C0.51001 10.8459 3.42001 13.7559 7.01001 13.7559C8.62001 13.7559 10.1 13.1659 11.24 12.1859L11.51 12.4659V13.2559L16.51 18.2459L18 16.7559L13.01 11.7559ZM7.01001 11.7559C4.52001 11.7559 2.51001 9.74586 2.51001 7.25586C2.51001 4.76586 4.52001 2.75586 7.01001 2.75586C9.50001 2.75586 11.51 4.76586 11.51 7.25586C11.51 9.74586 9.50001 11.7559 7.01001 11.7559Z" fill="#104D89"/>
</svg>
