<svg width="13" height="13" viewBox="0 0 13 13" fill="none" xmlns="http://www.w3.org/2000/svg">
<path d="M6.50003 12.75C6.26037 12.75 6.05962 12.6643 5.89778 12.4929C5.73537 12.322 5.65417 12.1101 5.65417 11.8571V7.39286H1.42484C1.18518 7.39286 0.984149 7.30714 0.821743 7.13571C0.659901 6.96488 0.578979 6.75298 0.578979 6.5C0.578979 6.24702 0.659901 6.03482 0.821743 5.86339C0.984149 5.69256 1.18518 5.60714 1.42484 5.60714H5.65417V1.14286C5.65417 0.889881 5.73537 0.677679 5.89778 0.50625C6.05962 0.335417 6.26037 0.25 6.50003 0.25C6.73969 0.25 6.94073 0.335417 7.10313 0.50625C7.26498 0.677679 7.3459 0.889881 7.3459 1.14286V5.60714H11.5752C11.8149 5.60714 12.0156 5.69256 12.1775 5.86339C12.3399 6.03482 12.4211 6.24702 12.4211 6.5C12.4211 6.75298 12.3399 6.96488 12.1775 7.13571C12.0156 7.30714 11.8149 7.39286 11.5752 7.39286H7.3459V11.8571C7.3459 12.1101 7.26498 12.322 7.10313 12.4929C6.94073 12.6643 6.73969 12.75 6.50003 12.75Z" fill="white"/>
</svg>
