<svg width="12" height="13" viewBox="0 0 12 13" fill="none" xmlns="http://www.w3.org/2000/svg">
<path d="M5.92105 12.5C5.68139 12.5 5.48064 12.4143 5.3188 12.2429C5.15639 12.072 5.07519 11.8601 5.07519 11.6071V7.14286H0.845865C0.606203 7.14286 0.405169 7.05714 0.242763 6.88571C0.0809212 6.71488 0 6.50298 0 6.25C0 5.99702 0.0809212 5.78482 0.242763 5.61339C0.405169 5.44256 0.606203 5.35714 0.845865 5.35714H5.07519V0.892857C5.07519 0.639881 5.15639 0.427679 5.3188 0.25625C5.48064 0.0854168 5.68139 0 5.92105 0C6.16071 0 6.36175 0.0854168 6.52415 0.25625C6.686 0.427679 6.76692 0.639881 6.76692 0.892857V5.35714H10.9962C11.2359 5.35714 11.4367 5.44256 11.5985 5.61339C11.7609 5.78482 11.8421 5.99702 11.8421 6.25C11.8421 6.50298 11.7609 6.71488 11.5985 6.88571C11.4367 7.05714 11.2359 7.14286 10.9962 7.14286H6.76692V11.6071C6.76692 11.8601 6.686 12.072 6.52415 12.2429C6.36175 12.4143 6.16071 12.5 5.92105 12.5Z" fill="#104D89"/>
</svg>
