<svg width="24" height="20" viewBox="0 0 24 20" fill="none" xmlns="http://www.w3.org/2000/svg">
<g clip-path="url(#clip0_388_267)">
<path d="M19.1096 1.48633H8.09967V5.29111H21.4611V3.4451C21.4611 2.36493 20.4062 1.48633 19.1096 1.48633Z" fill="#D6EFFF"/>
<path d="M12.8773 5.87631H0V2.34589C0 1.05225 1.26324 0 2.81616 0H6.93347C7.34271 0 7.73694 0.0718689 8.09509 0.206909C8.59534 0.394745 9.02509 0.704346 9.32648 1.10886L12.8773 5.87631Z" fill="#104D89"/>
<path d="M24 6.66675V18.0388C24 19.1204 22.9435 20 21.6451 20H2.35492C1.05652 20 0 19.1204 0 18.0388V4.70508H21.6451C22.9435 4.70508 24 5.58505 24 6.66675Z" fill="#228BD0"/>
</g>
<defs>
<clipPath id="clip0_388_267">
<rect width="24" height="20" fill="white"/>
</clipPath>
</defs>
</svg>
