<svg width="25" height="25" viewBox="0 0 25 25" fill="none" xmlns="http://www.w3.org/2000/svg">
<path d="M4.72222 22.2222H6.94444C7.33796 22.2222 7.66782 22.3553 7.93403 22.6215C8.20023 22.8877 8.33333 23.2176 8.33333 23.6111C8.33333 24.0046 8.20023 24.3345 7.93403 24.6007C7.66782 24.8669 7.33796 25 6.94444 25H1.38889C0.99537 25 0.665509 24.8669 0.399306 24.6007C0.133102 24.3345 0 24.0046 0 23.6111V18.0556C0 17.662 0.133102 17.3322 0.399306 17.066C0.665509 16.7998 0.99537 16.6667 1.38889 16.6667C1.78241 16.6667 2.11227 16.7998 2.37847 17.066C2.64468 17.3322 2.77778 17.662 2.77778 18.0556V20.2778L6.11111 16.9444C6.36574 16.6898 6.68982 16.5625 7.08333 16.5625C7.47685 16.5625 7.80093 16.6898 8.05556 16.9444C8.31019 17.1991 8.4375 17.5231 8.4375 17.9167C8.4375 18.3102 8.31019 18.6343 8.05556 18.8889L4.72222 22.2222ZM22.2222 4.72222L18.8889 8.05556C18.6343 8.31019 18.3102 8.4375 17.9167 8.4375C17.5231 8.4375 17.1991 8.31019 16.9444 8.05556C16.6898 7.80093 16.5625 7.47685 16.5625 7.08333C16.5625 6.68982 16.6898 6.36574 16.9444 6.11111L20.2778 2.77778H18.0556C17.662 2.77778 17.3322 2.64468 17.066 2.37847C16.7998 2.11227 16.6667 1.78241 16.6667 1.38889C16.6667 0.99537 16.7998 0.665509 17.066 0.399306C17.3322 0.133102 17.662 0 18.0556 0H23.6111C24.0046 0 24.3345 0.133102 24.6007 0.399306C24.8669 0.665509 25 0.99537 25 1.38889V6.94444C25 7.33796 24.8669 7.66782 24.6007 7.93403C24.3345 8.20023 24.0046 8.33333 23.6111 8.33333C23.2176 8.33333 22.8877 8.20023 22.6215 7.93403C22.3553 7.66782 22.2222 7.33796 22.2222 6.94444V4.72222Z" fill="white"/>
</svg>
